name rise32.9588peak41.5061fall63.4684.mot
datacolumns 19
datarows 20
range 2.46665400000000 2.49832400000000
endheader
time	ground_force1_vx	ground_force1_vy	ground_force1_vz	ground_force1_px	ground_force1_py	ground_force1_pz	ground_force2_vx	ground_force2_vy	ground_force2_vz	ground_force2_px	ground_force2_py	ground_force2_pz	ground_torque1_x	ground_torque1_y	ground_torque1_z	ground_torque2_x	ground_torque2_y	ground_torque2_z	
2.46665400000000	-5.39934700000000	41.27567100000000	-10.29881500000000	0.25554400000000	0.00000000000000	0.07213000000000	-40.06433100000000	782.85151800000006	-44.74068200000000	0.09628400000000	0.00000000000000	-0.08160000000000	0.00000000000000	-6.35848000000000	0.00000000000000	0.00000000000000	-12.90510500000000	0.00000000000000	
2.46832100000000	-5.91833800000000	48.63244600000000	-11.64565000000000	0.26224300000000	0.00000000000000	0.07328800000000	-40.34006200000000	780.12572699999998	-44.34042400000000	0.09558200000000	0.00000000000000	-0.08147600000000	0.00000000000000	-7.26959600000000	0.00000000000000	0.00000000000000	-12.80866900000000	0.00000000000000	
2.46998800000000	-6.33219100000000	56.14537000000000	-12.89199200000000	0.26822700000000	0.00000000000000	0.07432700000000	-40.63597000000000	777.28767700000003	-43.92725500000000	0.09488400000000	0.00000000000000	-0.08134600000000	0.00000000000000	-8.12958300000000	0.00000000000000	0.00000000000000	-12.71607400000000	0.00000000000000	
2.47165400000000	-6.62531700000000	63.72147100000000	-14.01037100000000	0.27362300000000	0.00000000000000	0.07526900000000	-40.95231800000000	774.33533399999999	-43.50118800000000	0.09419200000000	0.00000000000000	-0.08121300000000	0.00000000000000	-8.91925100000000	0.00000000000000	0.00000000000000	-12.62743500000000	0.00000000000000	
2.47332600000000	-6.78807100000000	71.28827300000000	-14.98195900000000	0.27852800000000	0.00000000000000	0.07613000000000	-41.28927300000000	771.26659199999995	-43.06223900000000	0.09350600000000	0.00000000000000	-0.08107500000000	0.00000000000000	-9.62488000000000	0.00000000000000	0.00000000000000	-12.54285000000000	0.00000000000000	
2.47499200000000	-6.81670100000000	78.79624400000000	-15.79676600000000	0.28301800000000	0.00000000000000	0.07692100000000	-41.64689900000000	768.07927700000005	-42.61042300000000	0.09282700000000	0.00000000000000	-0.08093200000000	0.00000000000000	-10.23848800000000	0.00000000000000	0.00000000000000	-12.46239500000000	0.00000000000000	
2.47665600000000	-6.71281600000000	86.21895700000000	-16.45309200000000	0.28715400000000	0.00000000000000	0.07765500000000	-42.02515500000000	764.77116000000001	-42.14576200000000	0.09215600000000	0.00000000000000	-0.08078500000000	0.00000000000000	-10.75758400000000	0.00000000000000	0.00000000000000	-12.38612400000000	0.00000000000000	
2.47832500000000	-6.48252400000000	93.55130300000000	-16.95639100000000	0.29098600000000	0.00000000000000	0.07833700000000	-42.42389300000000	761.33995600000003	-41.66827900000000	0.09149400000000	0.00000000000000	-0.08063300000000	0.00000000000000	-11.18451300000000	0.00000000000000	0.00000000000000	-12.31406900000000	0.00000000000000	
2.47998800000000	-6.13534700000000	100.80627300000000	-17.31774400000000	0.29455300000000	0.00000000000000	0.07897700000000	-42.84285500000000	757.78333799999996	-41.17800400000000	0.09084200000000	0.00000000000000	-0.08047600000000	0.00000000000000	-11.52551700000000	0.00000000000000	0.00000000000000	-12.24624100000000	0.00000000000000	
2.48166200000000	-5.68305000000000	108.01079700000000	-17.55214000000000	0.29788700000000	0.00000000000000	0.07957800000000	-43.28167100000000	754.09894399999996	-40.67497300000000	0.09020100000000	0.00000000000000	-0.08031500000000	0.00000000000000	-11.78963600000000	0.00000000000000	0.00000000000000	-12.18262900000000	0.00000000000000	
2.48332300000000	-5.13850200000000	115.20117300000000	-17.67674400000000	0.30101500000000	0.00000000000000	0.08014600000000	-43.73985600000000	750.28438500000004	-40.15923000000000	0.08957100000000	0.00000000000000	-0.08014900000000	0.00000000000000	-11.98756900000000	0.00000000000000	0.00000000000000	-12.12319600000000	0.00000000000000	
2.48499500000000	-4.51463700000000	122.41851000000000	-17.70928200000000	0.30396000000000	0.00000000000000	0.08068500000000	-44.21681300000000	746.33725500000003	-39.63082700000000	0.08895300000000	0.00000000000000	-0.07997900000000	0.00000000000000	-12.13059900000000	0.00000000000000	0.00000000000000	-12.06788600000000	0.00000000000000	
2.48665900000000	-3.82361000000000	129.70456300000001	-17.66666500000000	0.30673900000000	0.00000000000000	0.08119700000000	-44.71182500000000	742.25514299999998	-39.08982800000000	0.08834800000000	0.00000000000000	-0.07980300000000	0.00000000000000	-12.22965000000000	0.00000000000000	0.00000000000000	-12.01661700000000	0.00000000000000	
2.48832100000000	-3.07614500000000	137.09820900000000	-17.56391700000000	0.30936900000000	0.00000000000000	0.08168600000000	-45.22406300000000	738.03564500000005	-38.53630800000000	0.08775700000000	0.00000000000000	-0.07962300000000	0.00000000000000	-12.29453800000000	0.00000000000000	0.00000000000000	-11.96928800000000	0.00000000000000	
2.48999100000000	-2.28112800000000	144.63272900000001	-17.41342700000000	0.31186200000000	0.00000000000000	0.08215500000000	-45.75258000000000	733.67637400000001	-37.97035700000000	0.08718000000000	0.00000000000000	-0.07943800000000	0.00000000000000	-12.33343500000000	0.00000000000000	0.00000000000000	-11.92577100000000	0.00000000000000	
2.49165900000000	-1.44540500000000	152.33395999999999	-17.22454300000000	0.31422900000000	0.00000000000000	0.08260500000000	-46.29631200000000	729.17497300000002	-37.39207900000000	0.08661800000000	0.00000000000000	-0.07924800000000	0.00000000000000	-12.35255100000000	0.00000000000000	0.00000000000000	-11.88591900000000	0.00000000000000	
2.49332800000000	-0.57377800000000	160.21930000000000	-17.00345800000000	0.31648000000000	0.00000000000000	0.08303800000000	-46.85408400000000	724.52913100000001	-36.80159400000000	0.08607200000000	0.00000000000000	-0.07905400000000	0.00000000000000	-12.35602600000000	0.00000000000000	0.00000000000000	-11.84956300000000	0.00000000000000	
2.49499300000000	0.33084000000000	168.29748900000001	-16.75336500000000	0.31862300000000	0.00000000000000	0.08345600000000	-47.42460600000000	719.73659199999997	-36.19904300000000	0.08554100000000	0.00000000000000	-0.07885500000000	0.00000000000000	-12.34599000000000	0.00000000000000	0.00000000000000	-11.81651200000000	0.00000000000000	
2.49666100000000	1.26714800000000	176.56903800000001	-16.47479800000000	0.32066300000000	0.00000000000000	0.08386100000000	-48.00647900000000	714.79517899999996	-35.58458300000000	0.08502700000000	0.00000000000000	-0.07865100000000	0.00000000000000	-12.32277700000000	0.00000000000000	0.00000000000000	-11.78655500000000	0.00000000000000	
2.49832400000000	2.23511200000000	185.02715799999999	-16.16612300000000	0.32260800000000	0.00000000000000	0.08425200000000	-48.59819400000000	709.70280000000002	-34.95839500000000	0.08452900000000	0.00000000000000	-0.07844200000000	0.00000000000000	-12.28522200000000	0.00000000000000	0.00000000000000	-11.75946300000000	0.00000000000000	
